<?xml version='1.0' encoding='UTF-8' standalone='no'?>
<!-- Created with Fritzing (https://fritzing.org/) -->
<svg xmlns="http://www.w3.org/2000/svg" y="0in" version="1.2" viewBox="0 0 200.43 254.488" height="3.53456in"  xmlns:svg="http://www.w3.org/2000/svg" baseProfile="tiny" x="0in" width="2.78375in">
 <g id="watermark" >
  <g >
   <g >
    <path  fill="#8C8C8C" d="M175.698,248.288c-0.604,0,-1.131,0.325,-1.422,0.809l-2.796,0l3.96,-4.071c0.146,-0.146,0.289,-0.322,0.428,-0.521c0.149,-0.222,0.228,-0.479,0.228,-0.768c0,-0.279,-0.097,-0.518,-0.287,-0.71c-0.19,-0.188,-0.444,-0.287,-0.754,-0.287l-4.636,0c-0.305,0,-0.555,0.06,-0.742,0.17c-0.219,0.13,-0.33,0.368,-0.33,0.707c0,0.329,0.111,0.562,0.33,0.692c0.188,0.111,0.438,0.168,0.742,0.168l3.148,0l-3.974,4.086c-0.146,0.147,-0.289,0.315,-0.425,0.504c-0.153,0.212,-0.23,0.472,-0.23,0.771c0,0.28,0.096,0.521,0.288,0.711c0.188,0.188,0.442,0.285,0.754,0.285l4.315,0c0.293,0.467,0.812,0.776,1.4,0.776c0.916,0,1.66,-0.744,1.66,-1.661C177.357,249.033,176.612,248.288,175.698,248.288zM175.698,250.551c-0.334,0,-0.604,-0.271,-0.604,-0.604c0,-0.333,0.27,-0.604,0.604,-0.604c0.332,0,0.604,0.271,0.604,0.604C176.301,250.282,176.03,250.551,175.698,250.551z"/>
    <path  fill="#8C8C8C" d="M158.755,238.246c-0.914,0,-1.659,0.745,-1.659,1.66c0,0.916,0.745,1.66,1.659,1.66s1.658,-0.744,1.658,-1.66C160.415,238.991,159.671,238.246,158.755,238.246zM158.756,240.509c-0.333,0,-0.604,-0.27,-0.604,-0.603s0.271,-0.603,0.604,-0.603c0.331,0,0.604,0.27,0.604,0.603S159.087,240.509,158.756,240.509z"/>
    <path  fill="#8C8C8C" d="M167.276,242.908c-0.193,-0.111,-0.439,-0.169,-0.732,-0.169l-1.465,0L165.079,240.217c0,-0.292,-0.057,-0.538,-0.166,-0.729C164.823,239.331,164.63,239.146,164.22,239.146c-0.34,0,-0.578,0.116,-0.709,0.342c-0.109,0.193,-0.167,0.438,-0.167,0.729l0,2.521l-0.481,0c-0.295,0,-0.539,0.06,-0.731,0.169c-0.228,0.129,-0.341,0.368,-0.341,0.708c0,0.412,0.185,0.603,0.341,0.692c0.192,0.111,0.438,0.168,0.731,0.168l0.481,0l0,4.362c0,0.277,0.026,0.533,0.081,0.768c0.056,0.246,0.154,0.464,0.298,0.645c0.146,0.186,0.345,0.332,0.595,0.436c0.241,0.098,0.555,0.146,0.93,0.146l0.896,0c0.292,0,0.539,-0.054,0.731,-0.166c0.154,-0.089,0.341,-0.281,0.341,-0.693c0,-0.338,-0.114,-0.578,-0.341,-0.709c-0.192,-0.109,-0.439,-0.168,-0.731,-0.168l-0.821,0c-0.138,0,-0.19,-0.019,-0.207,-0.024c-0.014,-0.034,-0.035,-0.103,-0.035,-0.231L165.081,244.476l1.465,0c0.295,0,0.541,-0.057,0.734,-0.168c0.152,-0.09,0.34,-0.28,0.34,-0.692C167.616,243.276,167.503,243.037,167.276,242.908z"/>
    <path  fill="#8C8C8C" d="M158.821,242.738l-1.191,0c-0.292,0,-0.538,0.059,-0.731,0.169c-0.226,0.129,-0.341,0.368,-0.341,0.708c0,0.412,0.188,0.604,0.341,0.691c0.193,0.113,0.439,0.168,0.731,0.168l0.544,0l0,5.362c0,0.293,0.057,0.539,0.167,0.73c0.131,0.227,0.367,0.341,0.708,0.341c0.411,0,0.604,-0.187,0.692,-0.341c0.111,-0.191,0.168,-0.438,0.168,-0.73L159.909,243.826c0,-0.386,-0.084,-0.656,-0.256,-0.83C159.478,242.824,159.208,242.738,158.821,242.738z"/>
    <path  fill="#8C8C8C" d="M154.986,242.908c-0.193,-0.111,-0.44,-0.169,-0.732,-0.169l-0.604,0c-0.25,0,-0.498,0.063,-0.734,0.187c-0.226,0.119,-0.433,0.271,-0.616,0.453l-0.644,0.604l0,-0.247c0,-0.291,-0.055,-0.538,-0.168,-0.729c-0.128,-0.228,-0.368,-0.34,-0.707,-0.34c-0.41,0,-0.604,0.184,-0.693,0.34c-0.11,0.191,-0.167,0.438,-0.167,0.729l0,4.801c-0.475,0.293,-0.791,0.816,-0.791,1.412c0,0.917,0.745,1.661,1.658,1.661c0.916,0,1.66,-0.744,1.66,-1.661c0,-0.596,-0.317,-1.119,-0.792,-1.412l0,-2.21l1.738,-1.564c0.1,-0.09,0.199,-0.164,0.297,-0.217c0.084,-0.045,0.174,-0.067,0.274,-0.067l0.288,0c0.292,0,0.539,-0.056,0.732,-0.169c0.155,-0.088,0.339,-0.279,0.339,-0.691C155.326,243.276,155.211,243.037,154.986,242.908zM150.787,250.551c-0.332,0,-0.603,-0.271,-0.603,-0.604c0,-0.333,0.271,-0.604,0.603,-0.604c0.333,0,0.604,0.271,0.604,0.604C151.391,250.282,151.12,250.551,150.787,250.551z"/>
    <path  fill="#8C8C8C" d="M148.27,239.389c-0.193,-0.111,-0.44,-0.167,-0.731,-0.167l-0.59,0c-0.2,0,-0.389,0.004,-0.562,0.016c-0.176,0.009,-0.345,0.035,-0.506,0.07c-0.168,0.041,-0.336,0.109,-0.496,0.202c-0.158,0.093,-0.319,0.222,-0.48,0.382c-0.334,0.314,-0.554,0.656,-0.652,1.017c-0.094,0.348,-0.143,0.735,-0.143,1.151l0,0.678l-0.483,0c-0.292,0,-0.539,0.059,-0.73,0.169c-0.227,0.13,-0.342,0.369,-0.342,0.708c0,0.412,0.185,0.604,0.341,0.693c0.191,0.111,0.438,0.166,0.73,0.166l0.483,0l0,5.362c0,0.293,0.057,0.539,0.167,0.73c0.13,0.227,0.367,0.341,0.708,0.341c0.411,0,0.603,-0.187,0.692,-0.341c0.111,-0.191,0.168,-0.438,0.168,-0.73l0,-5.36l0.92,0c0.293,0,0.54,-0.057,0.732,-0.168c0.155,-0.09,0.34,-0.28,0.34,-0.692c0,-0.34,-0.114,-0.579,-0.34,-0.708c-0.189,-0.111,-0.436,-0.17,-0.729,-0.17l-0.92,0l0,-0.678c0,-0.218,0.019,-0.41,0.056,-0.571c0.032,-0.141,0.103,-0.261,0.218,-0.367l0.002,-0.004l0.002,-0.002c0.082,-0.082,0.176,-0.126,0.29,-0.136c0.15,-0.015,0.339,-0.022,0.564,-0.022l0.56,0c0.291,0,0.539,-0.058,0.731,-0.168c0.154,-0.088,0.339,-0.281,0.339,-0.693C148.61,239.758,148.495,239.519,148.27,239.389z"/>
    <path  fill="#8C8C8C" d="M200.263,243.006c-0.089,-0.156,-0.282,-0.34,-0.693,-0.34c-0.339,0,-0.578,0.113,-0.707,0.34c-0.078,0.133,-0.127,0.293,-0.152,0.477l-0.021,-0.021c-0.216,-0.236,-0.466,-0.42,-0.747,-0.539c-0.277,-0.119,-0.563,-0.183,-0.849,-0.183l-0.709,0c-0.249,0,-0.466,0.015,-0.64,0.041c-0.182,0.026,-0.352,0.074,-0.51,0.14c-0.158,0.066,-0.313,0.15,-0.459,0.254c-0.139,0.097,-0.303,0.226,-0.486,0.377c-0.188,0.156,-0.342,0.302,-0.463,0.434c-0.127,0.141,-0.23,0.293,-0.306,0.455c-0.069,0.16,-0.122,0.337,-0.147,0.523c-0.026,0.178,-0.041,0.391,-0.041,0.631l0,2.386c0,0.24,0.015,0.451,0.041,0.631c0.025,0.188,0.078,0.361,0.147,0.521c0.074,0.164,0.179,0.318,0.306,0.457c0.119,0.129,0.274,0.274,0.463,0.433c0.186,0.153,0.35,0.28,0.486,0.379c0.146,0.103,0.299,0.188,0.459,0.254c0.158,0.065,0.329,0.112,0.51,0.14c0.174,0.026,0.389,0.039,0.64,0.039l0.709,0c0.298,0,0.591,-0.066,0.87,-0.199c0.244,-0.114,0.492,-0.291,0.73,-0.523l0,1.434c0,0.18,-0.025,0.334,-0.072,0.465c-0.043,0.119,-0.159,0.258,-0.344,0.406c-0.154,0.127,-0.309,0.217,-0.457,0.264c-0.15,0.049,-0.341,0.074,-0.563,0.074l-2.203,0c-0.293,0,-0.538,0.055,-0.732,0.166c-0.152,0.088,-0.34,0.282,-0.34,0.692c0,0.341,0.115,0.579,0.34,0.71c0.194,0.109,0.439,0.167,0.732,0.167l2.326,0c0.247,0,0.463,-0.015,0.638,-0.041c0.179,-0.026,0.351,-0.073,0.513,-0.14c0.153,-0.064,0.31,-0.15,0.455,-0.254c0.143,-0.101,0.305,-0.227,0.487,-0.379c0.185,-0.153,0.343,-0.299,0.463,-0.431c0.128,-0.141,0.229,-0.294,0.304,-0.456c0.071,-0.162,0.123,-0.338,0.148,-0.523c0.025,-0.182,0.041,-0.393,0.041,-0.631l0,-7.898C200.43,243.444,200.376,243.197,200.263,243.006zM198.694,247.466c0,0.188,-0.062,0.35,-0.188,0.49c-0.15,0.172,-0.394,0.403,-0.716,0.686l-0.002,0.003l-0.002,0.004c-0.139,0.13,-0.291,0.237,-0.453,0.325c-0.148,0.082,-0.325,0.121,-0.526,0.121L196.506,249.095c-0.222,0,-0.41,-0.021,-0.563,-0.072c-0.148,-0.049,-0.301,-0.137,-0.453,-0.264c-0.231,-0.186,-0.315,-0.322,-0.346,-0.404c-0.049,-0.131,-0.072,-0.285,-0.072,-0.465l0,-2.206c0,-0.18,0.023,-0.336,0.072,-0.467c0.029,-0.082,0.113,-0.217,0.346,-0.403c0.152,-0.127,0.305,-0.216,0.453,-0.265c0.153,-0.049,0.342,-0.072,0.563,-0.072l0.301,0c0.212,0,0.388,0.037,0.526,0.113c0.152,0.082,0.308,0.191,0.457,0.324c0.322,0.293,0.564,0.529,0.716,0.7c0.128,0.146,0.188,0.304,0.188,0.492L198.694,247.466z"/>
    <path  fill="#8C8C8C" d="M180.284,238.246c-0.914,0,-1.66,0.745,-1.66,1.66c0,0.916,0.746,1.66,1.66,1.66s1.66,-0.744,1.66,-1.66C181.944,238.991,181.198,238.246,180.284,238.246zM180.284,240.509c-0.332,0,-0.604,-0.27,-0.604,-0.603s0.271,-0.603,0.604,-0.603s0.604,0.27,0.604,0.603C180.888,240.239,180.616,240.509,180.284,240.509z"/>
    <path  fill="#8C8C8C" d="M190.97,248.514l-0.107,-3.419c-0.011,-0.178,-0.021,-0.338,-0.031,-0.489c-0.01,-0.162,-0.037,-0.322,-0.082,-0.476c-0.045,-0.158,-0.11,-0.309,-0.198,-0.453c-0.093,-0.146,-0.216,-0.289,-0.37,-0.42c-0.225,-0.192,-0.443,-0.334,-0.646,-0.416c-0.207,-0.084,-0.461,-0.127,-0.754,-0.127l-1.012,0c-0.259,0,-0.501,0.058,-0.716,0.164c-0.197,0.098,-0.39,0.203,-0.572,0.315l-0.003,0.002l-0.003,0.003l-0.837,0.555l0,-0.041c0,-0.291,-0.057,-0.539,-0.168,-0.733c-0.129,-0.226,-0.367,-0.339,-0.707,-0.339c-0.411,0,-0.604,0.185,-0.693,0.339c-0.109,0.194,-0.168,0.438,-0.168,0.733l0,6.099c0,0.295,0.059,0.539,0.168,0.734c0.09,0.153,0.282,0.338,0.693,0.338c0.34,0,0.578,-0.114,0.707,-0.338c0.111,-0.195,0.168,-0.439,0.168,-0.734L185.639,245.776l1.953,-1.215c0.04,-0.024,0.082,-0.048,0.121,-0.063c0.031,-0.016,0.07,-0.025,0.115,-0.031c0.049,-0.012,0.117,-0.016,0.195,-0.016l0.362,0c0.188,0,0.334,0.021,0.435,0.059c0.082,0.029,0.143,0.076,0.18,0.143c0.05,0.078,0.08,0.18,0.098,0.303c0.02,0.139,0.034,0.309,0.045,0.504l0.096,3.097c-0.457,0.297,-0.762,0.811,-0.762,1.394c0,0.917,0.746,1.661,1.66,1.661c0.916,0,1.66,-0.744,1.66,-1.661C191.796,249.339,191.463,248.801,190.97,248.514zM190.136,250.551c-0.334,0,-0.602,-0.271,-0.602,-0.604c0,-0.333,0.268,-0.604,0.602,-0.604c0.333,0,0.604,0.271,0.604,0.604C190.741,250.282,190.469,250.551,190.136,250.551z"/>
    <path  fill="#8C8C8C" d="M180.347,242.738l-1.193,0c-0.293,0,-0.539,0.059,-0.731,0.169c-0.226,0.129,-0.341,0.368,-0.341,0.708c0,0.412,0.186,0.604,0.341,0.691c0.192,0.113,0.438,0.168,0.731,0.168l0.545,0l0,5.362c0,0.293,0.055,0.539,0.168,0.73c0.127,0.227,0.365,0.341,0.707,0.341c0.41,0,0.604,-0.187,0.691,-0.341c0.111,-0.191,0.17,-0.438,0.17,-0.73L181.435,243.826c0,-0.386,-0.085,-0.656,-0.259,-0.83C181.004,242.824,180.731,242.738,180.347,242.738z"/>
   </g>
  </g>
 </g>
 <g partID="854368340">
  <g transform="translate(95.15,77.1505)">
   <g id="schematic" gorn="0.3" >
    <rect id="rect4" stroke-width="0.9" y="0.45" stroke="#000000" stroke-linejoin="round" stroke-linecap="round" gorn="0.3.0" height="114.3"  x="14.4" fill="none" width="71.55"/>
    <text id="label" y="47.1" stroke="none" font-family="'Droid Sans'" font-size="3.5" text-anchor="middle" gorn="0.3.1"  x="50.4" fill="#000000">ESP32</text>
    <text id="text7" y="50.6" stroke="none" font-family="'Droid Sans'" font-size="3.5" text-anchor="middle" gorn="0.3.2"  x="50.4" fill="#000000">Feather</text>
    <text id="text9" y="54.1" stroke="none" font-family="'Droid Sans'" font-size="3.5" text-anchor="middle" gorn="0.3.3"  x="50.4" fill="#000000">V2</text>
    <text id="text11" y="57.6" stroke="none" font-family="'Droid Sans'" font-size="3.5" text-anchor="middle" gorn="0.3.4"  x="50.4" fill="#000000">rev</text>
    <text id="text13" y="61.1" stroke="none" font-family="'Droid Sans'" font-size="3.5" text-anchor="middle" gorn="0.3.5"  x="50.4" fill="#000000">E</text>
    <line id="line15" stroke-width="0.699998" stroke="#787878" stroke-linejoin="round" stroke-linecap="round" x1="0.349999" x2="14.4" gorn="0.3.6" y2="7.2"  fill="none" y1="7.2"/>
    <rect id="connector83pin" stroke-width="0" y="6.85" connectorName="!RESET" gorn="0.3.7" height="0.699998"  x="0" fill="none" width="14.4"/>
    <g id="connector83terminal" stroke-width="0" y="6.85" gorn="0.3.8" height="0.699998"  x="0" fill="none" width="0"/>
    <text id="label83" y="7.89998" stroke="none" font-family="'Droid Sans'" font-size="3.5" text-anchor="start" gorn="0.3.9"  x="15.8" fill="#8c8c8c">!RESET</text>
    <line id="line20" stroke-width="0.699998" stroke="#787878" stroke-linejoin="round" stroke-linecap="round" x1="0.349999" x2="14.4" gorn="0.3.10" y2="14.4"  fill="none" y1="14.4"/>
    <rect id="connector82pin" stroke-width="0" y="14.05" connectorName="3.3V" gorn="0.3.11" height="0.699998"  x="0" fill="none" width="14.4"/>
    <g id="connector82terminal" stroke-width="0" y="14.05" gorn="0.3.12" height="0.699998"  x="0" fill="none" width="0"/>
    <text id="label82" y="15.1" stroke="none" font-family="'Droid Sans'" font-size="3.5" text-anchor="start" gorn="0.3.13"  x="15.8" fill="#8c8c8c">3.3V</text>
    <line id="line25" stroke-width="0.699998" stroke="#787878" stroke-linejoin="round" stroke-linecap="round" x1="0.349999" x2="14.4" gorn="0.3.14" y2="21.6"  fill="none" y1="21.6"/>
    <rect id="connector33pin" stroke-width="0" y="21.25" connectorName="GND" gorn="0.3.15" height="0.699998"  x="0" fill="none" width="14.4"/>
    <g id="connector33terminal" stroke-width="0" y="21.25" gorn="0.3.16" height="0.699998"  x="0" fill="none" width="0"/>
    <text id="label33" y="22.3" stroke="none" font-family="'Droid Sans'" font-size="3.5" text-anchor="start" gorn="0.3.17"  x="15.8" fill="#8c8c8c">GND</text>
    <line id="line30" stroke-width="0.699998" stroke="#787878" stroke-linejoin="round" stroke-linecap="round" x1="0.349999" x2="14.4" gorn="0.3.18" y2="28.8"  fill="none" y1="28.8"/>
    <rect id="connector79pin" stroke-width="0" y="28.45" connectorName="A0_DAC2" gorn="0.3.19" height="0.699998"  x="0" fill="none" width="14.4"/>
    <g id="connector79terminal" stroke-width="0" y="28.45" gorn="0.3.20" height="0.699998"  x="0" fill="none" width="0"/>
    <text id="label79" y="29.5" stroke="none" font-family="'Droid Sans'" font-size="3.5" text-anchor="start" gorn="0.3.21"  x="15.8" fill="#8c8c8c">A0_DAC2</text>
    <line id="line35" stroke-width="0.699998" stroke="#787878" stroke-linejoin="round" stroke-linecap="round" x1="0.349999" x2="14.4" gorn="0.3.22" y2="36"  fill="none" y1="36"/>
    <rect id="connector78pin" stroke-width="0" y="35.65" connectorName="A1_DAC1" gorn="0.3.23" height="0.699998"  x="0" fill="none" width="14.4"/>
    <g id="connector78terminal" stroke-width="0" y="35.65" gorn="0.3.24" height="0.699998"  x="0" fill="none" width="0"/>
    <text id="label78" y="36.7" stroke="none" font-family="'Droid Sans'" font-size="3.5" text-anchor="start" gorn="0.3.25"  x="15.8" fill="#8c8c8c">A1_DAC1</text>
    <line id="line40" stroke-width="0.699998" stroke="#787878" stroke-linejoin="round" stroke-linecap="round" x1="0.349999" x2="14.4" gorn="0.3.26" y2="43.2"  fill="none" y1="43.2"/>
    <rect id="connector77pin" stroke-width="0" y="42.85" connectorName="A2_I34" gorn="0.3.27" height="0.699998"  x="0" fill="none" width="14.4"/>
    <g id="connector77terminal" stroke-width="0" y="42.85" gorn="0.3.28" height="0.699998"  x="0" fill="none" width="0"/>
    <text id="label77" y="43.9" stroke="none" font-family="'Droid Sans'" font-size="3.5" text-anchor="start" gorn="0.3.29"  x="15.8" fill="#8c8c8c">A2_I34</text>
    <line id="line45" stroke-width="0.699998" stroke="#787878" stroke-linejoin="round" stroke-linecap="round" x1="0.349999" x2="14.4" gorn="0.3.30" y2="50.4"  fill="none" y1="50.4"/>
    <rect id="connector76pin" stroke-width="0" y="50.05" connectorName="A3_I39" gorn="0.3.31" height="0.699998"  x="0" fill="none" width="14.4"/>
    <g id="connector76terminal" stroke-width="0" y="50.05" gorn="0.3.32" height="0.699998"  x="0" fill="none" width="0"/>
    <text id="label76" y="51.1" stroke="none" font-family="'Droid Sans'" font-size="3.5" text-anchor="start" gorn="0.3.33"  x="15.8" fill="#8c8c8c">A3_I39</text>
    <line id="line50" stroke-width="0.699998" stroke="#787878" stroke-linejoin="round" stroke-linecap="round" x1="0.349999" x2="14.4" gorn="0.3.34" y2="57.6"  fill="none" y1="57.6"/>
    <rect id="connector75pin" stroke-width="0" y="57.25" connectorName="A4_I36" gorn="0.3.35" height="0.699998"  x="0" fill="none" width="14.4"/>
    <g id="connector75terminal" stroke-width="0" y="57.25" gorn="0.3.36" height="0.699998"  x="0" fill="none" width="0"/>
    <text id="label75" y="58.3" stroke="none" font-family="'Droid Sans'" font-size="3.5" text-anchor="start" gorn="0.3.37"  x="15.8" fill="#8c8c8c">A4_I36</text>
    <line id="line55" stroke-width="0.699998" stroke="#787878" stroke-linejoin="round" stroke-linecap="round" x1="0.349999" x2="14.4" gorn="0.3.38" y2="64.8"  fill="none" y1="64.8"/>
    <rect id="connector74pin" stroke-width="0" y="64.45" connectorName="A5_IO4" gorn="0.3.39" height="0.699998"  x="0" fill="none" width="14.4"/>
    <g id="connector74terminal" stroke-width="0" y="64.45" gorn="0.3.40" height="0.699998"  x="0" fill="none" width="0"/>
    <text id="label74" y="65.5" stroke="none" font-family="'Droid Sans'" font-size="3.5" text-anchor="start" gorn="0.3.41"  x="15.8" fill="#8c8c8c">A5_IO4</text>
    <line id="line60" stroke-width="0.699998" stroke="#787878" stroke-linejoin="round" stroke-linecap="round" x1="0.349999" x2="14.4" gorn="0.3.42" y2="72"  fill="none" y1="72"/>
    <rect id="connector73pin" stroke-width="0" y="71.65" connectorName="SCK" gorn="0.3.43" height="0.699998"  x="0" fill="none" width="14.4"/>
    <g id="connector73terminal" stroke-width="0" y="71.65" gorn="0.3.44" height="0.699998"  x="0" fill="none" width="0"/>
    <text id="label73" y="72.6998" stroke="none" font-family="'Droid Sans'" font-size="3.5" text-anchor="start" gorn="0.3.45"  x="15.8" fill="#8c8c8c">SCK</text>
    <line id="line65" stroke-width="0.699998" stroke="#787878" stroke-linejoin="round" stroke-linecap="round" x1="0.349999" x2="14.4" gorn="0.3.46" y2="79.2"  fill="none" y1="79.2"/>
    <rect id="connector72pin" stroke-width="0" y="78.8501" connectorName="MOSI" gorn="0.3.47" height="0.699998"  x="0" fill="none" width="14.4"/>
    <g id="connector72terminal" stroke-width="0" y="78.8501" gorn="0.3.48" height="0.699998"  x="0" fill="none" width="0"/>
    <text id="label72" y="79.8998" stroke="none" font-family="'Droid Sans'" font-size="3.5" text-anchor="start" gorn="0.3.49"  x="15.8" fill="#8c8c8c">MOSI</text>
    <line id="line70" stroke-width="0.699998" stroke="#787878" stroke-linejoin="round" stroke-linecap="round" x1="0.349999" x2="14.4" gorn="0.3.50" y2="86.4"  fill="none" y1="86.4"/>
    <rect id="connector71pin" stroke-width="0" y="86.0501" connectorName="MISO" gorn="0.3.51" height="0.699998"  x="0" fill="none" width="14.4"/>
    <g id="connector71terminal" stroke-width="0" y="86.0501" gorn="0.3.52" height="0.699998"  x="0" fill="none" width="0"/>
    <text id="label71" y="87.0998" stroke="none" font-family="'Droid Sans'" font-size="3.5" text-anchor="start" gorn="0.3.53"  x="15.8" fill="#8c8c8c">MISO</text>
    <line id="line75" stroke-width="0.699998" stroke="#787878" stroke-linejoin="round" stroke-linecap="round" x1="0.349999" x2="14.4" gorn="0.3.54" y2="93.6"  fill="none" y1="93.6"/>
    <rect id="connector69pin" stroke-width="0" y="93.2501" connectorName="RX/IO8" gorn="0.3.55" height="0.699998"  x="0" fill="none" width="14.4"/>
    <g id="connector69terminal" stroke-width="0" y="93.2501" gorn="0.3.56" height="0.699998"  x="0" fill="none" width="0"/>
    <text id="label69" y="94.2998" stroke="none" font-family="'Droid Sans'" font-size="3.5" text-anchor="start" gorn="0.3.57"  x="15.8" fill="#8c8c8c">RX/IO8</text>
    <line id="line80" stroke-width="0.699998" stroke="#787878" stroke-linejoin="round" stroke-linecap="round" x1="0.349999" x2="14.4" gorn="0.3.58" y2="100.8"  fill="none" y1="100.8"/>
    <rect id="connector70pin" stroke-width="0" y="100.45" connectorName="TX/IO7" gorn="0.3.59" height="0.699998"  x="0" fill="none" width="14.4"/>
    <g id="connector70terminal" stroke-width="0" y="100.45" gorn="0.3.60" height="0.699998"  x="0" fill="none" width="0"/>
    <text id="label70" y="101.5" stroke="none" font-family="'Droid Sans'" font-size="3.5" text-anchor="start" gorn="0.3.61"  x="15.8" fill="#8c8c8c">TX/IO7</text>
    <line id="line85" stroke-width="0.699998" stroke="#787878" stroke-linejoin="round" stroke-linecap="round" x1="0.349999" x2="14.4" gorn="0.3.62" y2="108"  fill="none" y1="108"/>
    <rect id="connector68pin" stroke-width="0" y="107.65" connectorName="I37" gorn="0.3.63" height="0.699998"  x="0" fill="none" width="14.4"/>
    <g id="connector68terminal" stroke-width="0" y="107.65" gorn="0.3.64" height="0.699998"  x="0" fill="none" width="0"/>
    <text id="label68" y="108.7" stroke="none" font-family="'Droid Sans'" font-size="3.5" text-anchor="start" gorn="0.3.65"  x="15.8" fill="#8c8c8c">I37</text>
    <line id="line90" stroke-width="0.699998" stroke="#787878" stroke-linejoin="round" stroke-linecap="round" x1="86.0501" x2="100.45" gorn="0.3.66" y2="22.2"  fill="none" y1="22.2"/>
    <rect id="connector34pin" stroke-width="0" connectorname="V_NEOI2C" y="21.85" gorn="0.3.67" height="0.699998"  x="86.4" fill="none" width="14.4"/>
    <g id="connector34terminal" stroke-width="0" stroke="none" y="22.1993" height="0.0014"  x="100.786" fill="none" width="0.0288"/>
    <rect id="" stroke-width="0" y="6.85" gorn="0.3.68" height="0.699998"  x="100.8" fill="none" width="0"/>
    <text id="label34" y="22.9" stroke="none" font-family="'Droid Sans'" font-size="3.5" text-anchor="end" gorn="0.3.69"  x="85.0003" fill="#8c8c8c">V_NEOI2C</text>
    <line id="line95" stroke-width="0.699998" stroke="#787878" stroke-linejoin="round" stroke-linecap="round" x1="86.0501" x2="100.45" gorn="0.3.70" y2="29.4"  fill="none" y1="29.4"/>
    <rect id="connector84pin" stroke-width="0" connectorname="VBAT" y="29.05" gorn="0.3.71" height="0.699998"  x="86.4" fill="none" width="14.4"/>
    <g id="connector84terminal" stroke-width="0" stroke="none" y="29.3993" height="0.0014"  x="100.786" fill="none" width="0.0288"/>
    <rect id="" stroke-width="0" y="14.05" gorn="0.3.72" height="0.699998"  x="100.8" fill="none" width="0"/>
    <text id="label84" y="30.1" stroke="none" font-family="'Droid Sans'" font-size="3.5" text-anchor="end" gorn="0.3.73"  x="85.0003" fill="#8c8c8c">VBAT</text>
    <line id="line100" stroke-width="0.699998" stroke="#787878" stroke-linejoin="round" stroke-linecap="round" x1="86.0501" x2="100.45" gorn="0.3.74" y2="36.6"  fill="none" y1="36.6"/>
    <rect id="connector85pin" stroke-width="0" connectorname="EN" y="36.25" gorn="0.3.75" height="0.699998"  x="86.4" fill="none" width="14.4"/>
    <g id="connector85terminal" stroke-width="0" stroke="none" y="36.5993" height="0.0014"  x="100.786" fill="none" width="0.0288"/>
    <rect id="" stroke-width="0" y="21.25" gorn="0.3.76" height="0.699998"  x="100.8" fill="none" width="0"/>
    <text id="label85" y="37.3" stroke="none" font-family="'Droid Sans'" font-size="3.5" text-anchor="end" gorn="0.3.77"  x="85.0003" fill="#8c8c8c">EN</text>
    <line id="line105" stroke-width="0.699998" stroke="#787878" stroke-linejoin="round" stroke-linecap="round" x1="86.0501" x2="100.45" gorn="0.3.78" y2="43.8"  fill="none" y1="43.8"/>
    <rect id="connector86pin" stroke-width="0" connectorname="VBUS" y="43.45" gorn="0.3.79" height="0.699998"  x="86.4" fill="none" width="14.4"/>
    <g id="connector86terminal" stroke-width="0" stroke="none" y="43.7993" height="0.0014"  x="100.786" fill="none" width="0.0288"/>
    <rect id="" stroke-width="0" y="28.45" gorn="0.3.80" height="0.699998"  x="100.8" fill="none" width="0"/>
    <text id="label86" y="44.5" stroke="none" font-family="'Droid Sans'" font-size="3.5" text-anchor="end" gorn="0.3.81"  x="85.0003" fill="#8c8c8c">VBUS</text>
    <line id="line110" stroke-width="0.699998" stroke="#787878" stroke-linejoin="round" stroke-linecap="round" x1="86.0501" x2="100.45" gorn="0.3.82" y2="51"  fill="none" y1="51"/>
    <rect id="connector87pin" stroke-width="0" connectorname="IO13_A12" y="50.65" gorn="0.3.83" height="0.699998"  x="86.4" fill="none" width="14.4"/>
    <g id="connector87terminal" stroke-width="0" stroke="none" y="50.9993" height="0.0014"  x="100.786" fill="none" width="0.0288"/>
    <rect id="" stroke-width="0" y="35.65" gorn="0.3.84" height="0.699998"  x="100.8" fill="none" width="0"/>
    <text id="label87" y="51.7" stroke="none" font-family="'Droid Sans'" font-size="3.5" text-anchor="end" gorn="0.3.85"  x="85.0003" fill="#8c8c8c">IO13_A12</text>
    <line id="line115" stroke-width="0.699998" stroke="#787878" stroke-linejoin="round" stroke-linecap="round" x1="86.0501" x2="100.45" gorn="0.3.86" y2="58.2"  fill="none" y1="58.2"/>
    <rect id="connector88pin" stroke-width="0" connectorname="IO12_A11" y="57.85" gorn="0.3.87" height="0.699998"  x="86.4" fill="none" width="14.4"/>
    <g id="connector88terminal" stroke-width="0" stroke="none" y="58.1993" height="0.0014"  x="100.786" fill="none" width="0.0288"/>
    <rect id="" stroke-width="0" y="42.85" gorn="0.3.88" height="0.699998"  x="100.8" fill="none" width="0"/>
    <text id="label88" y="58.9" stroke="none" font-family="'Droid Sans'" font-size="3.5" text-anchor="end" gorn="0.3.89"  x="85.0003" fill="#8c8c8c">IO12_A11</text>
    <line id="line120" stroke-width="0.699998" stroke="#787878" stroke-linejoin="round" stroke-linecap="round" x1="86.0501" x2="100.45" gorn="0.3.90" y2="65.4"  fill="none" y1="65.4"/>
    <rect id="connector89pin" stroke-width="0" connectorname="IO27_A10" y="65.05" gorn="0.3.91" height="0.699998"  x="86.4" fill="none" width="14.4"/>
    <g id="connector89terminal" stroke-width="0" stroke="none" y="65.3993" height="0.0014"  x="100.786" fill="none" width="0.0288"/>
    <rect id="" stroke-width="0" y="50.05" gorn="0.3.92" height="0.699998"  x="100.8" fill="none" width="0"/>
    <text id="label89" y="66.1" stroke="none" font-family="'Droid Sans'" font-size="3.5" text-anchor="end" gorn="0.3.93"  x="85.0003" fill="#8c8c8c">IO27_A10</text>
    <line id="line125" stroke-width="0.699998" stroke="#787878" stroke-linejoin="round" stroke-linecap="round" x1="86.0501" x2="100.45" gorn="0.3.94" y2="72.6"  fill="none" y1="72.6"/>
    <rect id="connector90pin" stroke-width="0" connectorname="IO33_A9" y="72.25" gorn="0.3.95" height="0.699998"  x="86.4" fill="none" width="14.4"/>
    <g id="connector90terminal" stroke-width="0" stroke="none" y="72.5993" height="0.0014"  x="100.786" fill="none" width="0.0288"/>
    <rect id="" stroke-width="0" y="57.25" gorn="0.3.96" height="0.699998"  x="100.8" fill="none" width="0"/>
    <text id="label90" y="73.3" stroke="none" font-family="'Droid Sans'" font-size="3.5" text-anchor="end" gorn="0.3.97"  x="85.0003" fill="#8c8c8c">IO33_A9</text>
    <line id="line130" stroke-width="0.699998" stroke="#787878" stroke-linejoin="round" stroke-linecap="round" x1="86.0501" x2="100.45" gorn="0.3.98" y2="79.8"  fill="none" y1="79.8"/>
    <rect id="connector91pin" stroke-width="0" connectorname="IO15_A8" y="79.45" gorn="0.3.99" height="0.699998"  x="86.4" fill="none" width="14.4"/>
    <g id="connector91terminal" stroke-width="0" stroke="none" y="79.7993" height="0.0014"  x="100.786" fill="none" width="0.0288"/>
    <rect id="" stroke-width="0" y="64.45" gorn="0.3.100" height="0.699998"  x="100.8" fill="none" width="0"/>
    <text id="label91" y="80.5" stroke="none" font-family="'Droid Sans'" font-size="3.5" text-anchor="end" gorn="0.3.101"  x="85.0003" fill="#8c8c8c">IO15_A8</text>
    <line id="line135" stroke-width="0.699998" stroke="#787878" stroke-linejoin="round" stroke-linecap="round" x1="86.0501" x2="100.45" gorn="0.3.102" y2="87"  fill="none" y1="87"/>
    <rect id="connector92pin" stroke-width="0" connectorname="IO32_A7" y="86.65" gorn="0.3.103" height="0.699998"  x="86.4" fill="none" width="14.4"/>
    <g id="connector92terminal" stroke-width="0" stroke="none" y="86.9993" height="0.0014"  x="100.786" fill="none" width="0.0288"/>
    <rect id="" stroke-width="0" y="71.65" gorn="0.3.104" height="0.699998"  x="100.8" fill="none" width="0"/>
    <text id="label92" y="87.6998" stroke="none" font-family="'Droid Sans'" font-size="3.5" text-anchor="end" gorn="0.3.105"  x="85.0003" fill="#8c8c8c">IO32_A7</text>
    <line id="line140" stroke-width="0.699998" stroke="#787878" stroke-linejoin="round" stroke-linecap="round" x1="86.0501" x2="100.45" gorn="0.3.106" y2="94.2"  fill="none" y1="94.2"/>
    <rect id="connector93pin" stroke-width="0" connectorname="IO14_A6" y="93.8501" gorn="0.3.107" height="0.699998"  x="86.4" fill="none" width="14.4"/>
    <g id="connector93terminal" stroke-width="0" stroke="none" y="94.1994" height="0.0014"  x="100.786" fill="none" width="0.0288"/>
    <rect id="" stroke-width="0" y="78.8501" gorn="0.3.108" height="0.699998"  x="100.8" fill="none" width="0"/>
    <text id="label93" y="94.8998" stroke="none" font-family="'Droid Sans'" font-size="3.5" text-anchor="end" gorn="0.3.109"  x="85.0003" fill="#8c8c8c">IO14_A6</text>
    <line id="line145" stroke-width="0.699998" stroke="#787878" stroke-linejoin="round" stroke-linecap="round" x1="86.0501" x2="100.45" gorn="0.3.110" y2="101.4"  fill="none" y1="101.4"/>
    <rect id="connector35pin" stroke-width="0" connectorname="SDA" y="101.05" gorn="0.3.111" height="0.699998"  x="86.4" fill="none" width="14.4"/>
    <g id="connector35terminal" stroke-width="0" y="86.0501" gorn="0.3.112" height="0.699998"  x="100.8" fill="none" width="0"/>
    <text id="label35" y="102.1" stroke="none" font-family="'Droid Sans'" font-size="3.5" text-anchor="end" gorn="0.3.113"  x="85.0003" fill="#8c8c8c">SDA</text>
    <line id="line150" stroke-width="0.699998" stroke="#787878" stroke-linejoin="round" stroke-linecap="round" x1="86.0501" x2="100.45" gorn="0.3.114" y2="108.6"  fill="none" y1="108.6"/>
    <rect id="connector36pin" stroke-width="0" connectorname="SCL" y="108.25" gorn="0.3.115" height="0.699998"  x="86.4" fill="none" width="14.4"/>
    <g id="connector36terminal" stroke-width="0" y="93.2501" gorn="0.3.116" height="0.699998"  x="100.8" fill="none" width="0"/>
    <text id="label36" y="109.3" stroke="none" font-family="'Droid Sans'" font-size="3.5" text-anchor="end" gorn="0.3.117"  x="85.0003" fill="#8c8c8c">SCL</text>
    <rect id="connector80pin" stroke-width="0" y="21.25" connectorName="GND" gorn="0.3.118" height="0.699998"  x="0" fill="none" width="14.4"/>
    <g id="connector80terminal" stroke-width="0" y="21.25" gorn="0.3.119" height="0.699998"  x="0" fill="none" width="0"/>
    <rect id="connector166pin" stroke-width="0" y="21.25" connectorName="GND" gorn="0.3.120" height="0.699998"  x="0" fill="none" width="14.4"/>
    <g id="connector166terminal" stroke-width="0" y="21.25" gorn="0.3.121" height="0.699998"  x="0" fill="none" width="0"/>
    <rect id="connector167pin" stroke-width="0" connectorname="VBAT" y="29.05" gorn="0.3.122" height="0.699998"  x="86.4" fill="none" width="14.4"/>
    <g id="connector167terminal" stroke-width="0" y="14.05" gorn="0.3.123" height="0.699998"  x="100.8" fill="none" width="0"/>
    <rect id="connector94pin" stroke-width="0" connectorname="SCL" y="108.25" gorn="0.3.124" height="0.699998"  x="86.4" fill="none" width="14.4"/>
    <g id="connector94terminal" stroke-width="0" stroke="none" y="108.599" height="0.0014"  x="100.786" fill="none" width="0.0288"/>
    <rect id="" stroke-width="0" y="93.2501" gorn="0.3.125" height="0.699998"  x="100.8" fill="none" width="0"/>
    <rect id="connector95pin" stroke-width="0" connectorname="SDA" y="101.05" gorn="0.3.126" height="0.699998"  x="86.4" fill="none" width="14.4"/>
    <g id="connector95terminal" stroke-width="0" stroke="none" y="101.399" height="0.0014"  x="100.786" fill="none" width="0.0288"/>
    <rect id="" stroke-width="0" y="86.0501" gorn="0.3.127" height="0.699998"  x="100.8" fill="none" width="0"/>
   </g>
  </g>
 </g>
 <g partID="854369820">
  <g transform="translate(130.8,225.254)">
   <g id="schematic" >
    <line stroke-width="0.432002" stroke="#000000" stroke-linecap="round" class="other" x1="7.55002" x2="8.63003" y2="0.216"  y1="3.096"/>
    <line stroke-width="0.432002" stroke="#000000" stroke-linecap="round" class="other" x1="8.63003" x2="10.43" y2="5.976"  y1="0.216"/>
    <line stroke-width="0.432002" stroke="#000000" stroke-linecap="round" class="other" x1="10.43" x2="12.23" y2="0.216"  y1="5.976"/>
    <line stroke-width="0.432002" stroke="#000000" stroke-linecap="round" class="other" x1="12.23" x2="14.03" y2="5.976"  y1="0.216"/>
    <line stroke-width="0.432002" stroke="#000000" stroke-linecap="round" class="other" x1="14.03" x2="15.8301" y2="0.216"  y1="5.976"/>
    <line stroke-width="0.432002" stroke="#000000" stroke-linecap="round" class="other" x1="15.8301" x2="17.6301" y2="5.976"  y1="0.216"/>
    <line stroke-width="0.432002" stroke="#000000" stroke-linecap="round" class="other" x1="17.6301" x2="19.4301" y2="0.216"  y1="5.976"/>
    <line stroke-width="0.432002" stroke="#000000" stroke-linecap="round" class="other" x1="19.4301" x2="21.2301" y2="5.976"  y1="0.216"/>
    <line stroke-width="0.432002" stroke="#000000" stroke-linecap="round" class="other" x1="21.2301" x2="21.9501" y2="3.096"  y1="5.976"/>
    <line id="connector1pin" stroke-width="0.700001" connectorname="2" stroke="#787878" stroke-linecap="round" class="pin" x1="29.1502" x2="21.9501" y2="3.096"  y1="3.096"/>
    <g id="connector1terminal" stroke-width="0" y="3.096" stroke="none" class="terminal" height="0.000283465"  x="29.1502" fill="none" width="0.000283466"/>
    <text stroke-width="0" stroke="none" y="2.046" font-family="'Droid Sans'" font-size="2.50001" text-anchor="middle" class="text"  x="25.5501" fill="#8c8c8c">2</text>
    <line id="connector0pin" stroke-width="0.700001" connectorname="1" stroke="#787878" stroke-linecap="round" class="pin" x1="0.350001" x2="7.55002" y2="3.096"  y1="3.096"/>
    <g id="connector0terminal" stroke-width="0" y="3.096" stroke="none" class="terminal" height="0.000283465"  x="0.350001" fill="none" width="0.000283466"/>
    <text stroke-width="0" stroke="none" y="2.046" font-family="'Droid Sans'" font-size="2.50001" text-anchor="middle" class="text"  x="3.95001" fill="#8c8c8c">1</text>
   </g>
  </g>
 </g>
 <g partID="854381950">
  <g transform="translate(171.138,8.3005)">
   <g transform="matrix(0,1,-1,0,0,0)">
    <g id="schematic">
     <line stroke-width="0.9" stroke="#000000" stroke-linecap="round" x1="22.05" x2="0.45" y2="11.188" fill="none" y1="11.188"/>
     <line stroke-width="0.9" stroke="#000000" stroke-linecap="round" x1="14.851" x2="7.65" y2="14.788" fill="none" y1="14.788"/>
     <line stroke-width="0.9" stroke="#000000" stroke-linecap="round" x1="22.05" x2="0.45" y2="18.388" fill="none" y1="18.388"/>
     <line stroke-width="0.9" stroke="#000000" stroke-linecap="round" x1="14.851" x2="7.65" y2="21.988" fill="none" y1="21.988"/>
     <line stroke-width="0.75" stroke="#000000" stroke-linecap="round" x1="11.25" x2="11.25" y2="11.188" fill="none" y1="7.588"/>
     <line id="connector1pin" stroke-width="0.75" stroke="#787878" stroke-linecap="round" x1="11.25" x2="11.25" y2="21.988" fill="none" y1="29.188"/>
     <g id="connector1terminal" y="29.188" height="0" x="11.25" fill="none" width="0"/>
     <g transform="matrix(1, 0, 0, 1, 12.3809, 26.3574)">
      <text font-family="'DroidSans'" font-size="2.5" fill="#8C8C8C">1</text>
     </g>
     <line id="connector0pin" stroke-width="0.75" stroke="#787878" stroke-linecap="round" x1="11.25" x2="11.25" y2="7.588" fill="none" y1="0.388"/>
     <g id="connector0terminal" y="0.388" height="0" x="11.25" fill="none" width="0"/>
     <g transform="matrix(1, 0, 0, 1, 12.3809, 4.7578)">
      <text font-family="'DroidSans'" font-size="2.5" fill="#8C8C8C">2</text>
     </g>
     <g transform="matrix(1, 0, 0, 1, 7.8984, 4.7578)">
      <text font-family="'DroidSans'" font-size="2.5" fill="#F8141F">+</text>
     </g>
     <g transform="matrix(1, 0, 0, 1, 8.792, 26.0723)">
      <text font-family="'DroidSans'" font-size="2.5">-</text>
     </g>
    </g>
   </g>
  </g>
 </g>
 <g partID="854382150">
  <g transform="translate(27.2,145.938)">
   <g transform="matrix(-1,0,0,-1,0,0)">
    <g id="schematic">
     <line stroke-width="0.9" stroke="#000000" stroke-linecap="round" x1="22.05" x2="0.45" y2="11.188" fill="none" y1="11.188"/>
     <line stroke-width="0.9" stroke="#000000" stroke-linecap="round" x1="14.851" x2="7.65" y2="14.788" fill="none" y1="14.788"/>
     <line stroke-width="0.9" stroke="#000000" stroke-linecap="round" x1="22.05" x2="0.45" y2="18.388" fill="none" y1="18.388"/>
     <line stroke-width="0.9" stroke="#000000" stroke-linecap="round" x1="14.851" x2="7.65" y2="21.988" fill="none" y1="21.988"/>
     <line stroke-width="0.75" stroke="#000000" stroke-linecap="round" x1="11.25" x2="11.25" y2="11.188" fill="none" y1="7.588"/>
     <line id="connector1pin" stroke-width="0.75" stroke="#787878" stroke-linecap="round" x1="11.25" x2="11.25" y2="21.988" fill="none" y1="29.188"/>
     <g id="connector1terminal" y="29.188" height="0" x="11.25" fill="none" width="0"/>
     <g transform="matrix(1, 0, 0, 1, 12.3809, 26.3574)">
      <text font-family="'DroidSans'" font-size="2.5" fill="#8C8C8C">1</text>
     </g>
     <line id="connector0pin" stroke-width="0.75" stroke="#787878" stroke-linecap="round" x1="11.25" x2="11.25" y2="7.588" fill="none" y1="0.388"/>
     <g id="connector0terminal" y="0.388" height="0" x="11.25" fill="none" width="0"/>
     <g transform="matrix(1, 0, 0, 1, 12.3809, 4.7578)">
      <text font-family="'DroidSans'" font-size="2.5" fill="#8C8C8C">2</text>
     </g>
     <g transform="matrix(1, 0, 0, 1, 7.8984, 4.7578)">
      <text font-family="'DroidSans'" font-size="2.5" fill="#F8141F">+</text>
     </g>
     <g transform="matrix(1, 0, 0, 1, 8.792, 26.0723)">
      <text font-family="'DroidSans'" font-size="2.5">-</text>
     </g>
    </g>
   </g>
  </g>
 </g>
 <g partID="854381980">
  <line stroke-width="0.699998" stroke="#cc1414" stroke-linecap="round" x1="188.75" x2="167.15" y2="19.5505" y1="120.51"/>
 </g>
 <g partID="854382120">
  <line stroke-width="0.699998" stroke="#404040" stroke-linecap="round" x1="145.55" x2="102.35" y2="98.7505" y1="19.5505"/>
 </g>
 <circle cy="98.7505" stroke-width="0" cx="102.35" stroke="none" fill="black" r="1.44"/>
 <g partID="854382270">
  <line stroke-width="0.699998" stroke="#418dd9" stroke-linecap="round" x1="102.35" x2="15.95" y2="141.95" y1="185.15"/>
 </g>
 <circle cy="185.15" stroke-width="0" cx="102.35" stroke="none" fill="black" r="1.44"/>
 <g partID="854382460">
  <line stroke-width="0.699998" stroke="#418dd9" stroke-linecap="round" x1="102.35" x2="131.15" y2="228.35" y1="185.15"/>
 </g>
 <circle cy="185.15" stroke-width="0" cx="102.35" stroke="none" fill="black" r="1.44"/>
 <g partID="854382570">
  <line stroke-width="0.699998" stroke="#404040" stroke-linecap="round" x1="102.35" x2="15.95" y2="120.35" y1="98.7505"/>
 </g>
 <circle cy="98.7505" stroke-width="0" cx="102.35" stroke="none" fill="black" r="1.44"/>
 <g partID="854382830">
  <line stroke-width="0.699998" stroke="#cc1414" stroke-linecap="round" x1="188.75" x2="159.95" y2="228.35" y1="120.51"/>
 </g>
 <g id="partLabel" partID="854368340">
  <g transform="translate(144.43,69.3105)">
   <g id="schematicLabel" stroke="none" font-family="'DroidSans'" font-size="5" font-weight="normal" font-style="normal" fill="#000000" fill-opacity="1">
    <text y="3.75" x="0">microcontroller</text>
   </g>
  </g>
 </g>
 <g id="partLabel" partID="854369820">
  <g transform="translate(135.98,218.685)">
   <g id="schematicLabel" stroke="none" font-family="'DroidSans'" font-size="5" font-weight="normal" font-style="normal" fill="#000000" fill-opacity="1">
    <text y="3.75" x="0">1k Ohm</text>
   </g>
  </g>
 </g>
 <g id="partLabel" partID="854381950">
  <g transform="translate(144.917,0)">
   <g id="schematicLabel" stroke="none" font-family="'DroidSans'" font-size="5" font-weight="normal" font-style="normal" fill="#000000" fill-opacity="1">
    <text y="3.75" x="0">power supply</text>
    <text y="8.75" x="0">5</text>
   </g>
  </g>
 </g>
 <g id="partLabel" partID="854382150">
  <g transform="translate(0,108.438)">
   <g id="schematicLabel" stroke="none" font-family="'DroidSans'" font-size="5" font-weight="normal" font-style="normal" fill="#000000" fill-opacity="1">
    <text y="3.75" x="0">pulse output</text>
   </g>
  </g>
 </g>
</svg>
